<?xml version="1.0" encoding="utf-8"?>
<!-- Generator: Adobe Illustrator 19.2.1, SVG Export Plug-In . SVG Version: 6.00 Build 0)  -->
<svg version="1.1" xmlns="http://www.w3.org/2000/svg" xmlns:xlink="http://www.w3.org/1999/xlink" x="0px" y="0px"
	 viewBox="0 0 236.1 296.1" style="enable-background:new 0 0 236.1 296.1;" xml:space="preserve">
<style type="text/css">
	.st0{fill:#3F3F3F;}
	.st1{fill:#282828;}
	.st2{fill:#161616;}
	.st3{fill:#333333;}
	.st4{fill:#563B00;}
	.st5{fill:#916606;}
	.st6{fill:#C6A246;}
	.st7{fill:#666666;}
	.st8{fill:#111111;}
	.st9{fill:#777777;}
	.st10{fill:#141414;}
	.st11{fill:#9B9B9B;}
	.st12{fill:#1C1C1C;}
	.st13{fill:#565656;}
	.st14{fill:#444444;}
	.st15{fill:#383838;}
	.st16{fill:#353535;}
	.st17{fill:#D6D6D6;}
	.st18{fill:none;stroke:#FFFFFF;stroke-width:0.3;stroke-miterlimit:10;}
	.st19{fill:#E5E5E5;}
</style>
<g id="behind-guitar">
	<path id="body-thick" class="st0" d="M145.8,191.7c0,0,0.6-2.3-0.5-4.4c-1.1-2-3.8-4.6-8.7-3c-4.9,1.7-15.2,18.2-15.2,18.2
		l-38.1-31.5l15.4-12.8c0,0-2.3-6.9-4.5-9.5c-2.2-2.6-6.3-5.6-6.3-5.6L79,155.9l-13,73.3l17.9,61.9c0,0,7.7-3.4,12.7-10.6
		c5-7.2,8.2-19.5,11.2-36.1s8.1-20.6,10.1-22.6c2-2,18.8-9.8,23.9-19.2C146.9,193.1,145.8,191.7,145.8,191.7z"/>
	<path id="peg" class="st1" d="M31.1,277.2l-0.6,0.9c0,0,0.3,0.5-0.2,0.9c-0.5,0.4-3.7-1.8-3.3-2.3c0.4-0.5,0.8-0.3,0.8-0.3l2-2.4
		L31.1,277.2z"/>
</g>
<g id="guitar-body_2_">
	<path id="guitar-body" class="st2" d="M131.7,186.1c-3.5,2.8-9.4,6.7-13,7.1s-8.1-0.2-8.7-2.9c-0.6-2.7-0.8-7.9,0.8-10.2
		c1.6-2.3,6.6-10,6.3-12.9s-17.1-9-18.4-8.8c-1.3,0.1-3.7-2-6.5-9.3s-11.7-10.4-16.8-9.7c-5.1,0.7-8.8,2.1-12.9,8.8
		c-4.1,6.8-8.6,27.4-12.1,32.1S16.8,198,6.9,213.6s-7.7,28.7-2.7,37.8s32.1,30.2,38.7,34.8s18.1,12.3,28.9,9.1s13.7-4.3,17.1-8.8
		c3.4-4.6,8.5-12,12.4-26.8c3.9-14.8,4.3-28.1,8.5-33.5c4.2-5.4,19.8-16.6,28.5-24.2C151,181.2,135.2,183.2,131.7,186.1z"/>
</g>
<g id="guitar-cover">
	<path class="st3" d="M137.2,184.4c-2,0.2-4,0.9-5,1.7c-3.5,2.8-9.4,6.7-13,7.1s-8.1-0.2-8.7-2.9s-0.8-7.9,0.8-10.2
		c0.9-1.2,2.8-4.2,4.3-7l-17.3-9.3c0,0-5.3-5.4-17.6,1.9s-31.2,23.5-31.2,32.7s52.5,44.9,53.6,44.6c1.1-0.3,1.4-13.6,8.3-20.7
		s21.1-13.1,27.6-23.4C144.9,189,140.8,184.5,137.2,184.4z"/>
</g>
<g id="head-back">
	<path id="arm-behind" class="st4" d="M203.1,43.3c0,0,5.5-4.4,9.1-6.1c3.6-1.7,8.4-6.5,9.9-9.2c1.5-2.6,2.7-9.1,3.6-9.9
		c0.9-0.8,7.1-2.8,8.1-4c1-1.2,2.5-3.7,2.2-6.5s-1.5-4-1.5-4l-27.4,28.7L203.1,43.3z"/>
</g>
<g id="arm-back">
	<path id="armbehind" class="st5" d="M100.3,188.3c0,0,13.2-13.2,16-17.8s9.3-18.4,9.3-18.4l71.2-101.9c0,0,11-12.6,13.4-14.1
		s6-1.9,9.6-7.6c3.7-5.7,4-10.7,5.5-12c1.6-1.3,5.1-1,7.6-3.4c2.5-2.4,3.1-7.6,1.6-9.7s-4.3-3.2-6.7-2.5s-43.6,34.4-43.6,34.4
		s1.2,2.9-0.1,7C182.9,46.6,100.3,188.3,100.3,188.3z"/>
</g>
<g id="arm_1_">
	<polygon id="arm" class="st6" points="100.3,188.3 85.6,178.1 184.2,42.5 196.7,50.3 	"/>
</g>
<g id="controls">
	<g id="body-controller">
		<g id="board_1_">
			<ellipse transform="matrix(0.573 -0.8196 0.8196 0.573 -194.2841 173.0619)" class="st3" cx="68.9" cy="273" rx="6.3" ry="6.3"/>
			
				<ellipse transform="matrix(0.573 -0.8196 0.8196 0.573 -154.2836 178.284)" class="st3" cx="93.9" cy="237.2" rx="6.3" ry="6.3"/>
			
				<rect x="59.6" y="248.8" transform="matrix(0.573 -0.8196 0.8196 0.573 -174.2838 175.673)" class="st3" width="43.7" height="12.6"/>
		</g>
		<g id="controller">
			<path class="st7" d="M67,275.8l5.9-1.1c0,0,1.8-1.4,1.2-3.9c-0.6-2.5-2-2.5-2-2.5l-6.7,1.6L67,275.8z"/>
			<path class="st7" d="M80.5,257.2l5.5-1c0,0,1.3-1.4,1.1-3.4c-0.3-2-1.6-2.6-1.6-2.6l-6.2,1L80.5,257.2z"/>
			
				<ellipse transform="matrix(0.573 -0.8196 0.8196 0.573 -194.8161 171.3872)" class="st8" cx="67.1" cy="272.6" rx="3.1" ry="3.1"/>
			<ellipse transform="matrix(0.573 -0.8196 0.8196 0.573 -174.0778 174.0946)" class="st8" cx="80" cy="254.1" rx="3.1" ry="3.1"/>
			<path class="st9" d="M88.9,245.2l8.2-11c0,0-0.9-2.4-1.6-1.7s-9,12.9-9,12.9L88.9,245.2z"/>
			<path class="st10" d="M81.7,248.5c0,0,1.8,2.8,3.8,1.6c2-1.3,3.4-4.9,3.4-4.9s-3.2-2.1-3.9-1.5C84.4,244.4,81.7,248.5,81.7,248.5
				z"/>
		</g>
	</g>
</g>
<g id="string-board_2_">
	<g id="string-board">
		
			<ellipse transform="matrix(0.573 -0.8196 0.8196 0.573 -114.0912 145.6122)" class="st11" cx="82.7" cy="182.3" rx="2.2" ry="2.2"/>
		<ellipse transform="matrix(0.573 -0.8196 0.8196 0.573 -116.7276 161.9162)" class="st11" cx="97" cy="193" rx="2.2" ry="2.2"/>
		
			<rect x="87.6" y="178.7" transform="matrix(0.5956 -0.8033 0.8033 0.5956 -114.4062 148.0483)" class="st11" width="4.4" height="17.9"/>
	</g>
</g>
<g id="board_3_">
	<g id="board_2_">
		<g id="board">
			<polygon class="st1" points="81.8,222.6 60.7,206.2 40.1,234.7 61.8,251.3 			"/>
			<g id="string-board-body">
				<polygon class="st12" points="66.4,239.5 62.7,238.2 57.4,245.7 61.1,248.3 				"/>
				<polygon class="st12" points="67.4,240.2 63.6,238.9 58.4,246.4 62,248.9 				"/>
				<polygon class="st12" points="63.6,237.6 59.9,236.3 54.6,243.8 58.3,246.3 				"/>
				<polygon class="st12" points="60.7,235.5 57,234.2 51.7,241.7 55.3,244.3 				"/>
				<polygon class="st12" points="57.7,233.4 54,232.1 48.7,239.6 52.3,242.2 				"/>
				<polygon class="st12" points="55,231.5 51.2,230.2 46,237.7 49.6,240.3 				"/>
				<polygon class="st12" points="51.8,229.3 48.1,228 42.8,235.5 46.4,238 				"/>
				<polygon class="st12" points="50.4,228.4 46.7,227 41.4,234.5 45.1,237.1 				"/>
			</g>
		</g>
		<g id="board-board">
			<path class="st13" d="M61.9,210.5c0.9,1.1,0.5,3-0.9,4.2s-3.2,1.4-4.1,0.4s-0.5-3,0.9-4.2C59.1,209.6,61,209.4,61.9,210.5z"/>
			<path class="st13" d="M74.4,226.7c0.9,1.1,0.5,3-0.9,4.2c-1.4,1.3-3.2,1.4-4.1,0.4c-0.9-1.1-0.5-3,0.9-4.2
				C71.6,225.8,73.5,225.6,74.4,226.7z"/>
			<polygon class="st13" points="74.4,226.7 69.3,231.2 56.8,215.1 61.9,210.6 			"/>
		</g>
	</g>
</g>
<g id="tuner_1_">
	<g id="tuner">
		<path class="st1" d="M222.4,5c0,0-2.5-0.4-2.5-1.7c0.1-1.3,0.8-3.9,2.2-3.2s2.8,3,2.8,3L222.4,5z"/>
		<path class="st1" d="M218.6,8c0,0-1-1.7-1.6-2.2s-2.3-0.5-3,1c-0.7,1.5,0.3,3.4,1.3,3.2c1-0.2,1-0.2,1-0.2L218.6,8z"/>
		<path class="st1" d="M211.5,13.6c0,0-0.3-3.3-1.6-3.4s-3.9,1.9-3,3.5s2.4,1.7,2.4,1.7L211.5,13.6z"/>
		<path class="st1" d="M205.2,18.6c0,0-1.8-4.4-3.5-2c-1.7,2.4,1.4,3.7,1.4,3.7L205.2,18.6z"/>
		<path class="st1" d="M198.5,24c0,0,0.5-2.9-1.1-3.2s-3.8,1.4-3.7,2.7c0.1,1.3,2.3,2.5,2.3,2.5L198.5,24z"/>
		<path class="st1" d="M192.1,29.2c0,0-2.5-3.3-3.7-2.6c-1.2,0.7-1.5,1.5,0,2.9c1.5,1.4,1.5,1.4,1.5,1.4L192.1,29.2z"/>
	</g>
</g>
<g id="tuner-highlight">
	<g id="tuner-light">
		<path class="st14" d="M198.1,22.7c0,0-1.2,2.5-2.3,2c-1.1-0.5-1.6-0.8-1-1.6s1.2-1.8,1.8-1.8C197.3,21.3,198.2,21.5,198.1,22.7z"
			/>
		<path class="st14" d="M204.2,18.6c0,0-0.4,0.8-0.8,0.4c-0.4-0.4-0.8-1.7-0.1-1.8c0.7-0.1,1.2,0.7,1,1.1
			C204.2,18.6,204.2,18.6,204.2,18.6z"/>
		<path class="st14" d="M189.1,29.6c0,0-0.5-2-1-1.8c-0.4,0.1-0.7,0.5-0.1,1.1C188.7,29.5,189.1,29.6,189.1,29.6z"/>
		<path class="st14" d="M210.7,12.6c0,0-0.5,1.8-1.1,1c-0.5-0.7-0.1-2.6,0.4-2.4C210.6,11.5,210.7,12.6,210.7,12.6z"/>
		<path class="st14" d="M216.2,9.1c0,0-0.6,0.9-1.3,0.3c-0.7-0.6-0.5-1.4-0.5-1.4s0.1,0.7,0.9,0.7C216.2,8.7,216.2,9.1,216.2,9.1z"
			/>
		<path class="st14" d="M221.4,3.9c0,0,0.9,0.6,1.5-0.4s0.4-1.8,0.1-1.5c-0.4,0.2,0,1.2-0.6,1.5C221.8,3.7,221.4,3.9,221.4,3.9z"/>
	</g>
</g>
<g id="logo_1_">
	<g id="logo">
		<path d="M199.6,39c-0.1-0.3-0.2-0.6-0.1-1c0.1-1,0.3-2.1,0.7-3.1c0.2-0.6,0.5-1.2,0.9-1.6c0.3-0.3,0.6-0.3,0.9-0.1
			c0.2,0.1,0.4,0.3,0.6,0.6c0.2,0.3,0.4,0.6,0.6,0.9c0,0,0.1,0.1,0.1,0.1c0.1-0.2,0.3-0.4,0.4-0.7c0.1-0.2,0.2-0.3,0.3-0.5
			c0.1-0.1,0.1-0.1,0.2,0c0.1,0.1,0.2,0.1,0.2,0.2c0.1,0.1,0.1,0.3,0,0.4c-0.2,0.3-0.3,0.6-0.5,0.8c-0.2,0.3-0.2,0.5,0,0.7
			c0.6,1,1.1,2.2,1.5,3.3c0.1,0.3-0.1,0.7-0.4,0.7c-0.1,0-0.2,0-0.2-0.1c-0.1-0.1-0.1-0.2-0.2-0.3c-0.3-0.9-0.7-1.9-1.1-2.8
			c0-0.1-0.1-0.1-0.1-0.2c-0.1,0.1-0.1,0.3-0.1,0.4c0,0.1,0,0.1-0.1,0.2c-0.1,0.1-0.1,0.2-0.2,0.2c-0.1,0-0.3-0.2-0.3-0.3
			c0-0.1,0-0.2,0.1-0.3c0.1-0.3,0.2-0.5,0.3-0.8c0-0.1,0-0.1,0-0.2c-0.3-0.5-0.6-1-0.9-1.5c-0.1-0.1-0.2-0.2-0.3-0.3
			c-0.1-0.1-0.3-0.1-0.4,0c-0.3,0.3-0.4,0.6-0.5,1c-0.2,0.6-0.3,1.3-0.3,2c0,0.5,0,1.1-0.1,1.6c0,0.1,0,0.2,0,0.2
			c0,0.5-0.3,0.6-0.7,0.5C199.7,39.1,199.7,39,199.6,39z"/>
		<path d="M208.2,25.5c0.3-0.1,0.4-0.1,0.5,0.2c0.4,0.8,0.8,1.7,1.2,2.5c0.3,0.5,0.6,1.1,1,1.6c0.1,0.1,0.1,0.2,0.2,0.2
			c0.2,0.2,0.4,0.1,0.4-0.1c0,0,0-0.1,0-0.1c0-0.1,0.2-0.2,0.3-0.2c0.1,0,0.2,0.1,0.2,0.3c0,0.5-0.3,0.9-0.8,1
			c-0.1,0-0.2,0.1-0.2,0.2c0,0.3-0.2,0.5-0.4,0.7c-0.3,0.2-0.6,0.2-0.9,0c-0.5-0.3-0.8-0.7-0.9-1.3c-0.1-0.5,0.2-0.9,0.7-1
			c0,0,0,0,0.1,0c0-0.1-0.1-0.1-0.1-0.2c-0.6-0.9-1.1-1.9-1.5-2.9c-0.1-0.2-0.1-0.4,0-0.6C208.1,25.6,208.2,25.6,208.2,25.5z
			 M210.2,29.9c-0.1-0.1-0.2-0.1-0.3,0c0,0-0.1,0-0.1,0.1c0,0-0.1,0.1-0.1,0.1c0,0.4,0.2,0.8,0.5,1c0.2,0.1,0.4,0,0.4-0.2
			c0-0.2,0-0.3-0.1-0.5C210.4,30.3,210.3,30.1,210.2,29.9z"/>
		<path d="M214.1,24.7c0,0.2,0.1,0.3,0,0.5c-0.1,0.2-0.4,0.2-0.6,0.1c-0.2-0.1-0.3-0.3-0.2-0.6c0.1-0.2,0.3-0.3,0.5-0.3
			c0,0,0.1,0,0.1,0C213.9,24.5,214,24.6,214.1,24.7z M213.4,24.6c-0.2,0.2-0.2,0.4,0,0.6c0.2,0.2,0.4,0.2,0.5,0
			c0.2-0.2,0.2-0.4,0-0.6C213.8,24.5,213.5,24.5,213.4,24.6z"/>
		<path d="M208.4,32.1c0,0.1,0,0.1,0,0.2c0.1,0.3,0.1,0.7,0.2,1c0.1,0.2,0,0.4-0.1,0.6c-0.2,0.3-0.5,0.2-0.7,0
			c-0.1-0.1-0.1-0.2-0.2-0.3c0,0-0.1-0.1-0.1-0.2c0,0.1-0.1,0.2-0.1,0.2c-0.1,0.3-0.1,0.7-0.1,1c0,0.3-0.1,0.7-0.3,0.9
			c-0.1,0.1-0.2,0.3-0.3,0.3c-0.4,0.2-0.8,0-0.9-0.4c0-0.1,0-0.3-0.1-0.4c-0.1,0.1-0.2,0.2-0.3,0.2c-0.2,0.1-0.3,0.2-0.5,0.2
			c-0.3,0-0.6-0.2-0.5-0.6c0-0.3,0.2-0.5,0.4-0.7c0.2-0.2,0.4-0.5,0.6-0.7c0.1-0.1,0.2-0.3,0.4-0.5c0-0.1,0.1-0.1,0.2,0
			c0.3,0.2,0.4,0.5,0.1,0.8c-0.2,0.3-0.5,0.5-0.8,0.8c-0.1,0.1-0.1,0.2-0.2,0.2c0,0,0,0.1-0.1,0.1c0,0,0,0,0,0c0,0,0.1,0,0.1-0.1
			c0.3-0.3,0.6-0.6,0.9-0.9c0.1-0.1,0.2-0.2,0.4-0.1c0.2,0.1,0.2,0.2,0.2,0.4c0,0.1-0.1,0.2-0.1,0.3c-0.1,0.2-0.1,0.3-0.2,0.5
			c0,0.1,0,0.1,0,0.2c0,0,0.1-0.1,0.1-0.1c0.1-0.1,0.1-0.3,0.1-0.4c0.1-0.3,0.1-0.6,0.2-1c0.1-0.4,0.2-0.7,0.4-1
			c0.2-0.2,0.3-0.3,0.6-0.2c0.1,0,0.1,0,0.1-0.1c0-0.2-0.1-0.5-0.1-0.7c0-0.2,0-0.4,0.1-0.6c0.2-0.3,0.6-0.3,0.8,0
			c0.2,0.3,0.4,0.6,0.7,0.9c0.1,0.1,0.2,0.1,0.3,0c0,0,0-0.1,0.1-0.1c0.1,0,0.2,0,0.2,0c0,0,0.1,0.1,0.1,0.2c0,0.3-0.2,0.5-0.4,0.6
			c-0.2,0.1-0.4,0.1-0.6-0.1c-0.2-0.2-0.3-0.4-0.5-0.6C208.5,32.2,208.5,32.1,208.4,32.1C208.4,32.1,208.4,32.1,208.4,32.1z"/>
		<path d="M211.9,28.8c-0.1,0.1-0.3,0.1-0.4,0.2c-0.1,0-0.2,0.1-0.2,0.1c-0.2,0.1-0.5,0.1-0.6-0.1c-0.2-0.2-0.2-0.5-0.1-0.7
			c0.1-0.2,0.2-0.4,0.4-0.6c0.2-0.3,0.5-0.6,0.8-0.9c0.1-0.1,0.1-0.2,0.2-0.2c0.3,0.2,0.4,0.6,0.2,0.9c-0.2,0.2-0.4,0.4-0.6,0.7
			c0,0-0.1,0-0.1,0.1c0,0,0,0.1,0,0.1c0,0,0.1,0,0.1,0c0.2-0.1,0.3-0.2,0.5-0.4c0.1-0.1,0.2-0.2,0.3-0.3c0.1-0.1,0.3-0.1,0.4,0
			c0.1,0.1,0.1,0.2,0.1,0.3c-0.1,0.2-0.1,0.3-0.2,0.5c0,0.1-0.1,0.2-0.1,0.3c0,0,0,0.1,0.1,0.1c0,0,0.1,0,0.1-0.1
			c0.1-0.2,0.2-0.4,0.2-0.7c0.1-0.5,0-0.9-0.1-1.4c0-0.2-0.1-0.3-0.3-0.4c-0.2-0.1-0.3-0.4-0.4-0.6c0-0.1,0-0.1,0-0.2
			c0-0.2,0.2-0.3,0.4-0.3c0.2,0,0.4,0.2,0.5,0.4c0.1,0.1,0.2,0.2,0.3,0.1c0.2,0,0.4-0.1,0.5-0.1c0.2,0,0.2,0,0.2,0.2
			c0.1,0.2,0.1,0.4,0.2,0.6c0,0.1,0.1,0.2,0.2,0.1c0.1,0,0.1-0.1,0.1-0.2c0-0.1,0-0.1,0-0.2c0-0.2,0.2-0.2,0.4-0.1
			c0.1,0.1,0.2,0.2,0.2,0.4c0,0.4-0.2,0.6-0.5,0.8c-0.3,0.2-0.6,0-0.8-0.3c-0.1-0.1-0.1-0.3-0.2-0.5c0-0.1-0.1-0.1-0.2-0.1
			c-0.1,0-0.1,0.1-0.1,0.2c0,0.3,0.1,0.7,0.1,1c0,0.5-0.1,1-0.4,1.5c-0.1,0.2-0.3,0.3-0.5,0.4c-0.2,0.1-0.4,0.1-0.6,0
			c-0.2-0.1-0.3-0.4-0.2-0.7C211.9,28.9,211.9,28.8,211.9,28.8z"/>
		<path d="M213.6,25C213.7,25.1,213.7,25.1,213.6,25c0.1,0.1,0.1,0.1,0.1,0.2c0,0-0.1,0-0.1,0c-0.1-0.1-0.2-0.2-0.3-0.3
			c0.1-0.1,0.2-0.2,0.3-0.2c0.1,0,0.1,0.1,0.1,0.2c0.1,0,0.1,0.1,0.2,0.1c0,0,0,0,0,0C213.9,25,213.7,24.8,213.6,25z M213.6,25
			c0-0.1,0.1-0.1,0.1-0.2c0,0,0-0.1-0.1-0.1c-0.1,0-0.1,0.1-0.2,0.1C213.5,24.9,213.5,24.9,213.6,25z"/>
	</g>
</g>
<g id="arm-lines-dots">
	<g id="black-arm">
		<polygon points="175.9,53.9 188.4,62.3 188.1,62.7 175.5,54.5 		"/>
		<polygon points="168.7,63.9 181.3,72.4 181,72.8 168.3,64.4 		"/>
		<polygon points="162.1,72.9 174.9,81.5 174.6,82 161.7,73.5 		"/>
		<polygon points="155.8,81.7 168.8,90.4 168.5,90.8 155.4,82.2 		"/>
		<polygon points="149.9,89.7 163,98.6 162.7,99 149.5,90.3 		"/>
		<polygon points="144.1,97.6 157.4,106.5 157.2,107 143.8,98.2 		"/>
		<polygon points="138.9,104.7 152.4,113.8 152.1,114.2 138.6,105.3 		"/>
		<polygon points="134.1,111.5 147.6,120.6 147.3,121 133.7,112 		"/>
		<polygon points="142.8,127.4 129.6,117.6 129.2,118.2 142.4,128 		"/>
		<polygon points="138.5,133.6 125.1,123.8 124.7,124.3 138.1,134.2 		"/>
		<polygon points="134.4,139.5 120.9,129.6 120.5,130.2 134,140.1 		"/>
		<polygon points="130.4,145.2 116.8,135.2 116.4,135.7 130,145.7 		"/>
		<polygon points="126.8,150.3 113.2,140.2 112.8,140.8 126.5,150.9 		"/>
		<polygon points="123.3,155.4 109.5,145.3 109.1,145.9 122.9,156 		"/>
		<polygon points="120,160.1 106.2,149.8 105.8,150.4 119.6,160.6 		"/>
		<polygon points="117.1,164.3 103.2,154 102.8,154.6 116.7,164.8 		"/>
		<polygon points="114.2,168.4 100.2,158.1 99.7,158.7 113.8,169 		"/>
		<polygon points="111.4,172.4 97.3,162 96.9,162.6 111,173 		"/>
		<polygon points="108.8,176.2 94.9,165.3 94.5,165.9 108.4,176.7 		"/>
		<polygon points="106.1,179.9 92.3,169 92,169.4 105.8,180.5 		"/>
		<polygon points="104.1,182.9 90,172.1 89.5,172.8 103.7,183.5 		"/>
		<polygon points="101.6,186 88,175 87.6,175.4 101.4,186.8 101.8,186.2 		"/>
		<ellipse transform="matrix(0.573 -0.8196 0.8196 0.573 -102.8675 155.3932)" cx="97.7" cy="176.4" rx="0.9" ry="0.9"/>
		<ellipse transform="matrix(0.573 -0.8196 0.8196 0.573 -94.76 156.46)" cx="102.8" cy="169.2" rx="0.9" ry="0.9"/>
		<ellipse transform="matrix(0.573 -0.8196 0.8196 0.573 -59.8002 165.8198)" cx="129.2" cy="140.3" rx="0.9" ry="0.9"/>
		<ellipse transform="matrix(0.5431 -0.8397 0.8397 0.5431 -37.1669 170.8827)" cx="138.4" cy="119.6" rx="0.9" ry="0.9"/>
		<ellipse transform="matrix(0.5431 -0.8397 0.8397 0.5431 -21.1831 172.7641)" cx="148.2" cy="105.8" rx="0.9" ry="0.9"/>
		<ellipse transform="matrix(0.5431 -0.8397 0.8397 0.5431 -3.1573 174.9651)" cx="159.2" cy="90.4" rx="0.9" ry="0.9"/>
		<ellipse transform="matrix(0.5431 -0.8397 0.8397 0.5431 17.5056 177.3813)" cx="171.7" cy="72.6" rx="0.9" ry="0.9"/>
		<ellipse transform="matrix(0.573 -0.8196 0.8196 0.573 -58.6964 157.3643)" cx="121.7" cy="135" rx="0.9" ry="0.9"/>
		<ellipse transform="matrix(0.573 -0.8196 0.8196 0.573 -76.4147 159.1101)" cx="114.5" cy="152.9" rx="0.9" ry="0.9"/>
	</g>
</g>
<g id="nubs_1_">
	<g id="nubs">
		<ellipse transform="matrix(0.573 -0.8196 0.8196 0.573 54.7017 171.8194)" class="st14" cx="192.2" cy="33.4" rx="1.9" ry="1.9"/>
		<ellipse transform="matrix(0.573 -0.8196 0.8196 0.573 61.4618 175.1141)" class="st14" cx="198.8" cy="28.6" rx="1.9" ry="1.9"/>
		<ellipse transform="matrix(0.573 -0.8196 0.8196 0.573 68.7215 178.2961)" class="st14" cx="205.5" cy="23.2" rx="1.9" ry="1.9"/>
		<ellipse transform="matrix(0.573 -0.8196 0.8196 0.573 75.706 181.4081)" class="st14" cx="211.9" cy="18.1" rx="1.9" ry="1.9"/>
		<ellipse transform="matrix(0.573 -0.8196 0.8196 0.573 73.6918 185.5199)" class="st15" cx="214.9" cy="22" rx="1.9" ry="1.9"/>
		<ellipse transform="matrix(0.573 -0.8196 0.8196 0.573 83.1438 185.0128)" class="st14" cx="219.1" cy="12.7" rx="1.9" ry="1.9"/>
		<ellipse transform="matrix(0.573 -0.8196 0.8196 0.573 89.901 187.6361)" class="st14" cx="225" cy="7.5" rx="1.9" ry="1.9"/>
		<path class="st16" d="M193.6,45.9c0,0-2.1,1.4-2.9,0.2c-0.8-1.2,3.8-5.1,4.4-4.3C195.6,42.6,194.3,44.9,193.6,45.9z"/>
	</g>
</g>
<g id="body-pegs">
	<g id="pegs">
		<ellipse transform="matrix(0.573 -0.8196 0.8196 0.573 -149.7884 168.5058)" class="st17" cx="86.8" cy="228" rx="1" ry="1"/>
		<ellipse transform="matrix(0.6202 -0.7844 0.7844 0.6202 -137.1633 116.125)" class="st17" cx="51.3" cy="199.7" rx="1" ry="1"/>
		<ellipse transform="matrix(0.6202 -0.7844 0.7844 0.6202 -94.329 134.8714)" class="st17" cx="92.1" cy="164.9" rx="1" ry="1"/>
		<ellipse transform="matrix(0.573 -0.8196 0.8196 0.573 -152.7388 185.6796)" class="st17" cx="101.8" cy="239.4" rx="1" ry="1"/>
		<ellipse transform="matrix(0.573 -0.8196 0.8196 0.573 -97.0778 193.3805)" class="st17" cx="137" cy="189.9" rx="1" ry="1"/>
	</g>
	
		<ellipse transform="matrix(0.6202 -0.7844 0.7844 0.6202 -144.7016 137.5835)" class="st17" cx="69.7" cy="218.2" rx="0.6" ry="1.4"/>
	<g>
		<ellipse transform="matrix(0.573 -0.8196 0.8196 0.573 -156.9057 156.0154)" class="st17" cx="71.3" cy="228.6" rx="1" ry="1"/>
		<ellipse transform="matrix(0.573 -0.8196 0.8196 0.573 -149.4125 140.2278)" class="st17" cx="59.9" cy="213.5" rx="1" ry="1"/>
		<ellipse transform="matrix(0.573 -0.8196 0.8196 0.573 -154.4672 149.535)" class="st17" cx="66.3" cy="223" rx="1" ry="1"/>
		<ellipse transform="matrix(0.573 -0.8196 0.8196 0.573 -151.117 143.3093)" class="st17" cx="62" cy="216.7" rx="1" ry="1"/>
		<ellipse transform="matrix(0.573 -0.8196 0.8196 0.573 -155.8457 152.6525)" class="st17" cx="68.6" cy="225.9" rx="1" ry="1"/>
		<ellipse transform="matrix(0.573 -0.8196 0.8196 0.573 -152.9452 146.6538)" class="st17" cx="64.3" cy="220.1" rx="1" ry="1"/>
	</g>
</g>
<g id="strings_1_">
	<g id="strings">
		<line class="st18" x1="63.6" y1="238.9" x2="194" y2="51.2"/>
		<line class="st18" x1="60.6" y1="236.8" x2="192" y2="49.8"/>
		<line class="st18" x1="58.1" y1="235" x2="190.1" y2="48.4"/>
		<line class="st18" x1="55.2" y1="233" x2="188.3" y2="46.8"/>
		<line class="st18" x1="52.4" y1="230.3" x2="186.6" y2="45.9"/>
		<line class="st18" x1="50.4" y1="228.4" x2="185.1" y2="44.2"/>
	</g>
</g>
<g id="string-board_1_">
	<polygon id="stringboard" class="st19" points="183.4,43.7 195.5,52.2 196.2,51.2 184,42.8 	"/>
</g>
</svg>
