<?xml-stylesheet type="text/css" href="../css/style.css"?>

<svg id="mic" xmlns="http://www.w3.org/2000/svg" viewBox="0 0 142.81 305.98">
    <title>mic</title>
    <path id="cord-2" data-name="cord" d="M38.73,128.67s-24.53,39.2-21.36,71.52S36,267.47,29.64,288.66,2.74,328,2.74,328" transform="translate(-2.07 -22.81)" style="fill:none;stroke:#000;stroke-miterlimit:10;stroke-width:2px"/>
    <path id="handle" d="M91.76,43.07L90.54,74.3s-47.71,58.48-50.42,59.59-6.67-3.17-6.07-6.06S78.41,65.92,78.41,65.92Z" transform="translate(-2.07 -22.81)" style="fill:#474747"/><path id="connector" d="M80.9,60.35s-5.89,4.39,0,11.58,11.83,2.92,11.83,2.92Z" transform="translate(-2.07 -22.81)" style="fill:#5b5b5b"/><ellipse id="mice" cx="95.47" cy="58.04" rx="17.07" ry="15.77" transform="translate(-8.81 80.37) rotate(-55.12)" style="fill:#282828"/>
    <g id="lines"><line x1="92.72" y1="19" x2="92.8" y2="51.63" style="fill:none;stroke:#000;stroke-miterlimit:10"/><line x1="89.12" y1="19.96" x2="89.2" y2="51.64" style="fill:none;stroke:#000;stroke-miterlimit:10"/><line x1="96.32" y1="18.84" x2="96.4" y2="51.09" style="fill:none;stroke:#000;stroke-miterlimit:10"/><line x1="99.94" y1="19.94" x2="100.05" y2="48.96" style="fill:none;stroke:#000;stroke-miterlimit:10"/><line x1="85.18" y1="22.57" x2="85.29" y2="49.8" style="fill:none;stroke:#000;stroke-miterlimit:10"/><line x1="103.79" y1="22.96" x2="103.86" y2="45.67" style="fill:none;stroke:#000;stroke-miterlimit:10"/><line x1="81.95" y1="24.5" x2="82.02" y2="47.2" style="fill:none;stroke:#000;stroke-miterlimit:10"/><line x1="107.06" y1="27.01" x2="107.01" y2="42.09" style="fill:none;stroke:#000;stroke-miterlimit:10"/><line x1="79.06" y1="30.26" x2="79.09" y2="42.14" style="fill:none;stroke:#000;stroke-miterlimit:10"/><line x1="78.98" y1="39.86" x2="108.3" y2="40.06" style="fill:none;stroke:#000;stroke-miterlimit:10"/><line x1="78.12" y1="35.81" x2="109.19" y2="35.68" style="fill:none;stroke:#000;stroke-miterlimit:10"/><line x1="77.97" y1="32.2" x2="108.57" y2="32.22" style="fill:none;stroke:#000;stroke-miterlimit:10"/><line x1="80.15" y1="28.74" x2="107.82" y2="28.59" style="fill:none;stroke:#000;stroke-miterlimit:10"/><line x1="80.13" y1="43.35" x2="106.25" y2="43.24" style="fill:none;stroke:#000;stroke-miterlimit:10"/><line x1="81.74" y1="24.73" x2="104.69" y2="24.76" style="fill:none;stroke:#000;stroke-miterlimit:10"/><line x1="81.68" y1="46.48" x2="103.88" y2="46.5" style="fill:none;stroke:#000;stroke-miterlimit:10"/><line x1="86.21" y1="21.47" x2="101.7" y2="21.53" style="fill:none;stroke:#000;stroke-miterlimit:10"/><line x1="85.02" y1="49.18" x2="99.26" y2="49.43" style="fill:none;stroke:#000;stroke-miterlimit:10"/></g><rect id="mic_bar" data-name="mic bar" x="92.99" y="41.56" width="2.86" height="34.7" rx="1.43" ry="1.43" transform="translate(-16.07 61.21) rotate(-45)" style="fill:#5b5b5b"/>
    <g id="stand-2" data-name="stand"><polygon points="60.8 64.2 59.31 62.88 49.05 77.59 60.8 88.36 71.97 75.62 60.8 64.2"/><rect x="64.85" y="75.62" width="7.12" height="214.19"/><path d="M74,312.62s13.31,6.49,13.84,11L88.42,328H53s-0.89-.15,0-3.93,13.87-11.49,13.87-11.49H74Z" transform="translate(-2.07 -22.81)"/></g><polygon id="pink-spark" points="8.61 289.81 9.08 286.92 7.54 286.55 7.54 284.69 6.41 284.69 6.26 282.6 9.38 281.72 8.97 285.46 10.18 285.2 8.61 289.81"/><polygon id="yellow-spark" points="26.98 283 28.47 281.86 27.8 280.94 28.59 280.06 27.98 279.51 28.8 278.45 30.84 279.54 29.03 281.12 29.79 281.58 26.98 283"/><polygon id="blue-spark" points="15.93 300.52 18.39 298.93 17.62 297.55 19 296.29 18.24 295.45 19.69 293.94 22.43 295.65 19.4 297.87 20.4 298.59 15.93 300.52"/><path id="large-sound" d="M133.87,56.89a19.24,19.24,0,0,1-16.64-11.13c-5.17-11.16,3.25-24.31,5.6-22.85s-7.56,12-2.06,22S134.93,51.57,133.87,56.89Z" transform="translate(-2.07 -22.81)"/><path id="medium-sound" d="M140.37,49.55a13.57,13.57,0,0,1-11.74-7.85c-3.65-7.87,2.29-17.14,3.95-16.11s-5.33,8.45-1.45,15.53S141.12,45.8,140.37,49.55Z" transform="translate(-2.07 -22.81)"/><path id="small-sound" d="M144.84,45.78a9.31,9.31,0,0,1-8.05-5.38c-2.5-5.4,1.57-11.76,2.71-11.06s-3.66,5.8-1,10.66S145.36,43.21,144.84,45.78Z" transform="translate(-2.07 -22.81)"/></svg>
