<?xml version="1.0" encoding="utf-8"?>
<!-- Generator: Adobe Illustrator 19.2.1, SVG Export Plug-In . SVG Version: 6.00 Build 0)  -->
<svg version="1.1" xmlns="http://www.w3.org/2000/svg" xmlns:xlink="http://www.w3.org/1999/xlink" x="0px" y="0px"
	 viewBox="0 0 345 146.8" style="enable-background:new 0 0 345 146.8;" xml:space="preserve">
<style type="text/css">
	.st0{fill:#FFFFFF;stroke:#000000;stroke-width:8;stroke-miterlimit:10;}
	.st1{fill:#FF0000;}
</style>
<g id="ticket">
	<path class="st0" d="M312.4,71c0-11.7,13-21.3,28.9-21.3V4.3H4.3v46C17.1,52.5,26.6,60.9,26.6,71S17.1,89.5,4.3,91.7v51h337.1V92.2
		C325.4,92.2,312.4,82.7,312.4,71z"/>
</g>
<g id="Layer_2">
	<g>
		<path d="M79.7,31.7c7.2,0,10.8,5.6,10.8,11.1c0,5.6-3.6,11.1-10.8,11.1h-7.3V65h-4.8V31.7H79.7z M79.7,49.2c4,0,6-3.1,6-6.3
			c0-3.2-2-6.3-6-6.3h-7.3v12.6H79.7z"/>
		<path d="M92.7,55V31.8h4.8v23.3c0,3.7,3.9,5.5,7.5,5.5c3.5,0,7.4-1.9,7.4-5.5V31.8h4.8v23.3c0,6.7-6.6,10.3-12.3,10.3
			C99.2,65.3,92.7,61.8,92.7,55z"/>
		<path d="M127.2,48.1h5.6c4,0,6-2.9,6-5.8c0-2.9-2-5.7-6-5.7h-7.4V65h-4.8V31.7h12.1c7.2,0,10.8,5.3,10.8,10.6
			c0,4.7-2.9,9.2-8.6,10.2L145.5,65h-6.2l-12.1-14.6V48.1z"/>
		<path d="M149.8,36.5c2.9-3,7-4.9,11.5-4.9c7.6,0,13.6,4.8,15.5,12.3H172c-1.8-5-5.8-7.5-10.7-7.5c-3.2,0-6.1,1.4-8.2,3.6
			c-2.1,2.2-3.4,5.1-3.4,8.6c0,3.3,1.3,6.3,3.4,8.5c2.1,2.2,5,3.6,8.2,3.6c5,0,9.3-2.9,11-7.9h4.7c-1.9,7.6-8,12.7-15.7,12.7
			c-4.5,0-8.6-1.9-11.5-4.9c-2.9-3-4.8-7.2-4.8-11.8C145,43.7,146.9,39.6,149.8,36.5z"/>
		<path d="M184.1,45.8h14.1v-14h4.8V65h-4.8V50.5h-14.1V65h-4.8V31.8h4.8V45.8z"/>
		<path d="M224.4,55.2h-11.9c-1.3,3-2.9,7-4,9.8h-5.2l13.4-33.7h3.5L233.5,65h-5.1L224.4,55.2z M214.3,50.7h8.3l-4.1-11.7
			L214.3,50.7z"/>
		<path d="M251.7,40.3c-0.7-3-3.9-4.3-6.8-4.2c-2.2,0-4.7,0.8-6,2.5c-0.7,0.9-0.9,1.9-0.8,3.1c0.2,3.4,4,3.8,7.6,4.2
			c4.6,0.6,10.2,1.8,11.5,7.1c0.1,0.7,0.2,1.5,0.2,2.2c0,6.4-6.4,10.1-12.4,10.1c-5.1,0-11.4-3-12-9l0-0.9l4.8-0.1l0,0.7v-0.2
			c0.3,3.1,4.1,4.7,7.2,4.7c3.6,0,7.5-2,7.5-5.4c0-0.3,0-0.7-0.1-1.1c-0.6-2.5-4-2.9-7.3-3.3c-5.2-0.5-11.3-1.7-11.8-8.6v0
			c-0.2-2.2,0.4-4.5,1.8-6.3c2.2-2.9,6.2-4.4,10.1-4.4c5.1,0,10.5,2.7,11.3,8.7L251.7,40.3z"/>
		<path d="M264.6,60.2H280V65h-20.3V31.8H280v4.8h-15.4v9.4h15.1v4.8h-15.1V60.2z"/>
	</g>
	<g>
		<path class="st1" d="M78.3,119.7V84.6H65.9v-6h30.6v6H84.2v35.1H78.3z"/>
		<path class="st1" d="M119.6,84.6H112v29.1h7.6v5.9H98.5v-5.9h7.6V84.6h-7.6v-5.8h21.1V84.6z"/>
		<path class="st1" d="M127,84.6c3.6-3.7,8.6-6.1,14.1-6.1c9.3,0,16.7,5.8,19,15.1h-5.8c-2.2-6.1-7.2-9.2-13.2-9.2
			c-3.9,0-7.5,1.7-10,4.4c-2.6,2.7-4.2,6.3-4.2,10.5c0,4.1,1.6,7.7,4.2,10.4c2.6,2.7,6.1,4.4,10,4.4c6.2,0,11.5-3.6,13.6-9.8h5.8
			c-2.3,9.3-9.8,15.6-19.3,15.6c-5.6,0-10.6-2.3-14.1-6.1c-3.5-3.7-5.8-8.9-5.8-14.5C121.1,93.5,123.5,88.3,127,84.6z"/>
		<path class="st1" d="M169.3,78.7v40.8h-5.8V78.7H169.3z M170.4,97.7l14.3-18.9h7.4L176.5,99l17.2,20.6H186l-15.6-18.9V97.7z"/>
		<path class="st1" d="M199.8,113.7h19v5.9h-24.9V78.7h24.9v5.9h-18.9v11.5h18.5v6h-18.5V113.7z"/>
		<path class="st1" d="M233.6,119.7V84.6h-12.4v-6h30.6v6h-12.3v35.1H233.6z"/>
		<path class="st1" d="M273.7,89.2c-0.8-3.7-4.8-5.3-8.4-5.2c-2.7,0.1-5.8,1-7.4,3.1c-0.8,1.1-1.1,2.4-1,3.8
			c0.3,4.2,4.9,4.7,9.3,5.1c5.6,0.7,12.6,2.2,14.1,8.7c0.2,0.9,0.3,1.9,0.3,2.7c0,7.9-7.8,12.4-15.2,12.4c-6.3,0-14-3.7-14.7-11
			l-0.1-1.1l6-0.1l0.1,0.9v-0.2c0.4,3.8,5,5.8,8.8,5.8c4.4,0,9.2-2.5,9.2-6.7c0-0.4-0.1-0.9-0.2-1.4c-0.7-3.1-4.9-3.6-9-4
			c-6.4-0.6-13.8-2-14.5-10.6v0.1c-0.2-2.7,0.5-5.5,2.2-7.8c2.7-3.6,7.7-5.4,12.4-5.4c6.3,0,12.9,3.3,13.9,10.8L273.7,89.2z"/>
	</g>
</g>
</svg>
