<?xml version="1.0" encoding="utf-8"?>
<!-- Generator: Adobe Illustrator 19.2.1, SVG Export Plug-In . SVG Version: 6.00 Build 0)  -->
<svg version="1.1" id="ticket" class="anim-swinger" xmlns="http://www.w3.org/2000/svg" xmlns:xlink="http://www.w3.org/1999/xlink" x="0px" y="0px" viewBox="0 0 374.9 200" style="enable-background:new 0 0 374.9 200;" xml:space="preserve">
	<style type="text/css">
		#ticket {
			cursor: pointer;
		}
		.st0 {
			fill: #FFFFFF;
		}
		.st1 {
			fill: #FF0000;
		}

		.anim-swinger {
			animation: anim-swinger-frames linear 1s;
			animation-iteration-count: infinite;
			animation-direction: alternate;
			transform-origin: 50% 50%;
			-webkit-animation: anim-swinger-frames linear 1s;
			-webkit-animation-iteration-count: infinite;
			-webkit-animation-direction: alternate;
			-webkit-transform-origin: 50% 50%;
			-moz-animation: anim-swinger-frames linear 1s;
			-moz-animation-iteration-count: infinite;
			-moz-animation-direction: alternate;
			-moz-transform-origin: 50% 50%;
			-ms-animation: anim-swinger-frames linear 1s;
			-ms-animation-iteration-count: infinite;
			-ms-animation-direction: alternate;
			-ms-transform-origin: 50% 50%;
			-o-animation: anim-swinger-frames linear 1s;
			-o-animation-iteration-count: infinite;
			-o-animation-direction: alternate;
			-o-transform-origin: 50% 50%;
		}
		@keyframes anim-swinger-frames {
			0% {
				left: 0;
				top: 0;
				opacity: 1;
				transform: rotate(-2deg) scaleX(1) scaleY(1);
			}
			100% {
				transform: rotate(2deg);
			}
		}
		@-webkit-keyframes anim-swinger-frames {
			0% {
				left: 0;
				top: 0;
				opacity: 1;
				transform: rotate(-2deg) scaleX(1) scaleY(1);
			}
			100% {
				transform: rotate(2deg);
			}
		}
		@-ms-keyframes anim-swinger-frames {
			0% {
				left: 0;
				top: 0;
				opacity: 1;
				transform: rotate(-2deg) scaleX(1) scaleY(1);
			}
			100% {
				transform: rotate(2deg);
			}
		}
		@-moz-keyframes anim-swinger-frames {
			0% {
				left: 0;
				top: 0;
				opacity: 1;
				transform: rotate(-2deg) scaleX(1) scaleY(1);
			}
			100% {
				transform: rotate(2deg);
			}
		}
		@-o-keyframes anim-swinger-frames {
			0% {
				left: 0;
				top: 0;
				opacity: 1;
				transform: rotate(-2deg) scaleX(1) scaleY(1);
			}
			100% {
				transform: rotate(2deg);
			}
		}

	</style>
<a xlink:href="http://www.bandsintown.com/event/12084212-july-talk-new-york-webster-hall-2016" target="_blank">
	<g>
		<path class="st0" d="M356,125.3c-13.6,0-24.6-11-24.6-24.6s11-24.6,24.6-24.6l0,0V32.3H18.9v43.8c13.6,0,24.6,11,24.6,24.6
		s-11,24.6-24.6,24.6v45.4H356V125.3L356,125.3z"/>
		<path
			d="M360,174.7H14.9v-53.4h4c11.3,0,20.6-9.2,20.6-20.6s-9.3-20.6-20.6-20.6h-4V28.3H360v51.9h-4c-11.3,0-20.6,9.2-20.6,20.6
		s9.2,20.6,20.6,20.6h4V174.7z M22.9,166.7H352V129c-13.9-2-24.6-13.9-24.6-28.3s10.7-26.3,24.6-28.3V36.3H22.9v36.1
		c13.9,2,24.6,13.9,24.6,28.3S36.8,127.1,22.9,129V166.7z"/>
	</g>
	<g id="Layer_2">
		<g>
			<path d="M94.3,59.7c7.2,0,10.8,5.6,10.8,11.1c0,5.6-3.6,11.1-10.8,11.1H87V93h-4.8V59.7H94.3z M94.3,77.2c4,0,6-3.1,6-6.3
			c0-3.2-2-6.3-6-6.3H87v12.6C87,77.2,94.3,77.2,94.3,77.2z"/>
			<path d="M107.3,83V59.8h4.8v23.3c0,3.7,3.9,5.5,7.5,5.5c3.5,0,7.4-1.9,7.4-5.5V59.8h4.8v23.3c0,6.7-6.6,10.3-12.3,10.3
			C113.8,93.3,107.3,89.8,107.3,83z"/>
			<path d="M141.8,76.1h5.6c4,0,6-2.9,6-5.8s-2-5.7-6-5.7H140V93h-4.8V59.7h12.1c7.2,0,10.8,5.3,10.8,10.6c0,4.7-2.9,9.2-8.6,10.2
			L160.1,93h-6.2l-12.1-14.6C141.8,78.4,141.8,76.1,141.8,76.1z"/>
			<path
				d="M164.4,64.5c2.9-3,7-4.9,11.5-4.9c7.6,0,13.6,4.8,15.5,12.3h-4.8c-1.8-5-5.8-7.5-10.7-7.5c-3.2,0-6.1,1.4-8.2,3.6
			c-2.1,2.2-3.4,5.1-3.4,8.6c0,3.3,1.3,6.3,3.4,8.5c2.1,2.2,5,3.6,8.2,3.6c5,0,9.3-2.9,11-7.9h4.7c-1.9,7.6-8,12.7-15.7,12.7
			c-4.5,0-8.6-1.9-11.5-4.9s-4.8-7.2-4.8-11.8C159.6,71.7,161.5,67.6,164.4,64.5z"/>
			<path d="M198.7,73.8h14.1v-14h4.8V93h-4.8V78.5h-14.1V93h-4.8V59.8h4.8V73.8z"/>
			<path d="M239,83.2h-11.9c-1.3,3-2.9,7-4,9.8h-5.2l13.4-33.7h3.5L248.1,93H243L239,83.2z M228.9,78.7h8.3L233.1,67L228.9,78.7z"/>
			<path
				d="M266.3,68.3c-0.7-3-3.9-4.3-6.8-4.2c-2.2,0-4.7,0.8-6,2.5c-0.7,0.9-0.9,1.9-0.8,3.1c0.2,3.4,4,3.8,7.6,4.2
			c4.6,0.6,10.2,1.8,11.5,7.1c0.1,0.7,0.2,1.5,0.2,2.2c0,6.4-6.4,10.1-12.4,10.1c-5.1,0-11.4-3-12-9v-0.9l4.8-0.1V84v-0.2
			c0.3,3.1,4.1,4.7,7.2,4.7c3.6,0,7.5-2,7.5-5.4c0-0.3,0-0.7-0.1-1.1c-0.6-2.5-4-2.9-7.3-3.3c-5.2-0.5-11.3-1.7-11.8-8.6l0,0
			c-0.2-2.2,0.4-4.5,1.8-6.3c2.2-2.9,6.2-4.4,10.1-4.4c5.1,0,10.5,2.7,11.3,8.7L266.3,68.3z"/>
			<path d="M279.2,88.2h15.4V93h-20.3V59.8h20.3v4.8h-15.4V74h15.1v4.8h-15.1V88.2z"/>
		</g>
		<g>
			<path class="st1" d="M92.9,147.7v-35.1H80.5v-6h30.6v6H98.8v35.1H92.9z"/>
			<path class="st1" d="M134.2,112.6h-7.6v29.1h7.6v5.9h-21.1v-5.9h7.6v-29.1h-7.6v-5.8h21.1V112.6z"/>
			<path
				class="st1"
				d="M141.6,112.6c3.6-3.7,8.6-6.1,14.1-6.1c9.3,0,16.7,5.8,19,15.1h-5.8c-2.2-6.1-7.2-9.2-13.2-9.2
			c-3.9,0-7.5,1.7-10,4.4c-2.6,2.7-4.2,6.3-4.2,10.5c0,4.1,1.6,7.7,4.2,10.4c2.6,2.7,6.1,4.4,10,4.4c6.2,0,11.5-3.6,13.6-9.8h5.8
			c-2.3,9.3-9.8,15.6-19.3,15.6c-5.6,0-10.6-2.3-14.1-6.1c-3.5-3.7-5.8-8.9-5.8-14.5C135.7,121.5,138.1,116.3,141.6,112.6z"/>
			<path class="st1" d="M183.9,106.7v40.8h-5.8v-40.8H183.9z M185,125.7l14.3-18.9h7.4L191.1,127l17.2,20.6h-7.7L185,128.7V125.7z"/>
			<path class="st1" d="M214.4,141.7h19v5.9h-24.9v-40.9h24.9v5.9h-18.9v11.5H233v6h-18.5v11.6H214.4z"/>
			<path class="st1" d="M248.2,147.7v-35.1h-12.4v-6h30.6v6h-12.3v35.1H248.2z"/>
			<path
				class="st1"
				d="M288.3,117.2c-0.8-3.7-4.8-5.3-8.4-5.2c-2.7,0.1-5.8,1-7.4,3.1c-0.8,1.1-1.1,2.4-1,3.8
			c0.3,4.2,4.9,4.7,9.3,5.1c5.6,0.7,12.6,2.2,14.1,8.7c0.2,0.9,0.3,1.9,0.3,2.7c0,7.9-7.8,12.4-15.2,12.4c-6.3,0-14-3.7-14.7-11
			l-0.1-1.1l6-0.1l0.1,0.9v-0.2c0.4,3.8,5,5.8,8.8,5.8c4.4,0,9.2-2.5,9.2-6.7c0-0.4-0.1-0.9-0.2-1.4c-0.7-3.1-4.9-3.6-9-4
			c-6.4-0.6-13.8-2-14.5-10.6v0.1c-0.2-2.7,0.5-5.5,2.2-7.8c2.7-3.6,7.7-5.4,12.4-5.4c6.3,0,12.9,3.3,13.9,10.8L288.3,117.2z"/>
		</g>
	</g>
</a>
</svg>
